<svg width="40" height="40" viewBox="0 0 40 40" fill="none" xmlns="http://www.w3.org/2000/svg">
<path d="M0 20C0 8.95431 8.95431 0 20 0V0C31.0457 0 40 8.95431 40 20V20C40 31.0457 31.0457 40 20 40V40C8.95431 40 0 31.0457 0 20V20Z" fill="white"/>
<rect x="13" y="14" width="2" height="2" rx="1" fill="#01013D"/>
<rect x="13" y="19" width="2" height="2" rx="1" fill="#01013D"/>
<rect x="13" y="24" width="2" height="2" rx="1" fill="#01013D"/>
<rect x="19" y="14" width="2" height="2" rx="1" fill="#01013D"/>
<rect x="19" y="19" width="2" height="2" rx="1" fill="#01013D"/>
<rect x="19" y="24" width="2" height="2" rx="1" fill="#01013D"/>
<rect x="25" y="14" width="2" height="2" rx="1" fill="#01013D"/>
<rect x="25" y="19" width="2" height="2" rx="1" fill="#01013D"/>
<rect x="25" y="24" width="2" height="2" rx="1" fill="#01013D"/>
<circle opacity="0.6" cx="20" cy="20" r="19.5" stroke="#01013D"/>
</svg>
