<svg width="41" height="40" viewBox="0 0 41 40" fill="none" xmlns="http://www.w3.org/2000/svg">
<rect x="0.90625" width="40" height="40" rx="12.9844" fill="#BEAFEF"/>
<g clip-path="url(#clip0_657_2743)">
<path d="M25.7578 15.4795C24.8655 15.0643 23.9087 14.7583 22.9082 14.5831C22.89 14.5797 22.8718 14.5881 22.8624 14.605C22.7393 14.827 22.603 15.1167 22.5076 15.3443C21.4315 15.1809 20.3609 15.1809 19.3069 15.3443C19.2115 15.1116 19.0702 14.827 18.9466 14.605C18.9372 14.5887 18.919 14.5803 18.9008 14.5831C17.9009 14.7577 16.944 15.0637 16.0511 15.4795C16.0434 15.4829 16.0368 15.4886 16.0324 15.4959C14.2174 18.2462 13.7202 20.9288 13.9641 23.5783C13.9652 23.5912 13.9724 23.6036 13.9823 23.6115C15.1798 24.5035 16.3397 25.045 17.4782 25.4039C17.4964 25.4095 17.5157 25.4028 17.5273 25.3875C17.7966 25.0145 18.0366 24.6212 18.2424 24.2076C18.2546 24.1834 18.243 24.1547 18.2182 24.1451C17.8374 23.9986 17.4749 23.82 17.1261 23.6171C17.0985 23.6008 17.0963 23.5608 17.1217 23.5416C17.1951 23.4858 17.2685 23.4278 17.3386 23.3692C17.3512 23.3585 17.3689 23.3562 17.3838 23.363C19.675 24.424 22.1555 24.424 24.4196 23.363C24.4345 23.3557 24.4522 23.3579 24.4654 23.3686C24.5355 23.4272 24.6089 23.4858 24.6829 23.5416C24.7083 23.5608 24.7066 23.6008 24.679 23.6171C24.3303 23.8239 23.9677 23.9986 23.5864 24.1445C23.5616 24.1541 23.5505 24.1834 23.5627 24.2076C23.7729 24.6207 24.0129 25.014 24.2773 25.387C24.2883 25.4028 24.3082 25.4095 24.3264 25.4039C25.4703 25.045 26.6303 24.5035 27.8278 23.6115C27.8382 23.6036 27.8449 23.5918 27.846 23.5788C28.1379 20.5158 27.357 17.8551 25.776 15.4964C25.7722 15.4886 25.7656 15.4829 25.7578 15.4795ZM18.5846 21.965C17.8948 21.965 17.3264 21.3227 17.3264 20.5338C17.3264 19.745 17.8838 19.1026 18.5846 19.1026C19.2909 19.1026 19.8538 19.7506 19.8428 20.5338C19.8428 21.3227 19.2854 21.965 18.5846 21.965ZM23.2365 21.965C22.5467 21.965 21.9784 21.3227 21.9784 20.5338C21.9784 19.745 22.5357 19.1026 23.2365 19.1026C23.9429 19.1026 24.5057 19.7506 24.4947 20.5338C24.4947 21.3227 23.9429 21.965 23.2365 21.965Z" fill="white"/>
</g>
<defs>
<clipPath id="clip0_657_2743">
<rect width="14" height="11" fill="white" transform="translate(13.9062 14.5)"/>
</clipPath>
</defs>
</svg>
