<svg width="41" height="40" viewBox="0 0 41 40" fill="none" xmlns="http://www.w3.org/2000/svg">
<rect x="0.71875" width="40" height="40" rx="12.9844" fill="#BEAFEF"/>
<g clip-path="url(#clip0_657_2752)">
<path fill-rule="evenodd" clip-rule="evenodd" d="M20.9227 12C16.3901 12 12.7188 15.6714 12.7188 20.204C12.7188 23.83 15.0707 26.9021 18.3291 27.9899C18.737 28.0655 18.8881 27.8137 18.8881 27.5921C18.8881 27.3957 18.8831 26.882 18.878 26.197C16.5966 26.6906 16.1131 25.0992 16.1131 25.0992C15.7405 24.1523 15.2016 23.9005 15.2016 23.9005C14.4562 23.3919 15.257 23.402 15.257 23.402C16.0779 23.4624 16.516 24.248 16.516 24.248C17.2463 25.502 18.4348 25.1394 18.9032 24.9279C18.9787 24.3991 19.1903 24.0365 19.4219 23.83C17.5988 23.6235 15.6851 22.9185 15.6851 19.7759C15.6851 18.8794 16.0024 18.1492 16.5312 17.5751C16.4455 17.3686 16.1635 16.5326 16.6117 15.4045C16.6117 15.4045 17.3017 15.1829 18.8679 16.2455C19.5227 16.0642 20.2227 15.9736 20.9227 15.9685C21.6177 15.9685 22.3228 16.0642 22.9775 16.2455C24.5437 15.1829 25.2337 15.4045 25.2337 15.4045C25.6819 16.5326 25.3999 17.3686 25.3143 17.5751C25.838 18.1492 26.1553 18.8794 26.1553 19.7759C26.1553 22.9285 24.2365 23.6185 22.4084 23.825C22.7005 24.0768 22.9674 24.5804 22.9674 25.3459C22.9674 26.4438 22.9573 27.3251 22.9573 27.5971C22.9573 27.8187 23.1034 28.0705 23.5214 27.9899C26.7798 26.9021 29.1267 23.83 29.1267 20.209C29.1267 15.6714 25.4553 12 20.9227 12Z" fill="white"/>
</g>
<defs>
<clipPath id="clip0_657_2752">
<rect width="16.4079" height="16" fill="white" transform="translate(12.7188 12)"/>
</clipPath>
</defs>
</svg>
