<svg width="158" height="46" viewBox="0 0 158 46" fill="none" xmlns="http://www.w3.org/2000/svg">
<g clip-path="url(#clip0_657_2896)">
<path d="M54.537 39.3291C52.9031 38.8547 51.5896 38.2391 50.5986 37.478L52.338 33.6197C53.2868 34.3154 54.4147 34.8741 55.7219 35.2958C57.0291 35.7175 58.3363 35.9283 59.6435 35.9283C61.0982 35.9283 62.1735 35.7133 62.8692 35.2811C63.565 34.8488 63.9129 34.2733 63.9129 33.5564C63.9129 33.0293 63.7084 32.5929 63.2951 32.245C62.884 31.8972 62.3569 31.6188 61.7139 31.408C61.0708 31.1972 60.2001 30.9653 59.1037 30.7123C57.417 30.3117 56.0361 29.9111 54.9608 29.5105C53.8855 29.1099 52.9621 28.4669 52.1947 27.5814C51.4251 26.6959 51.0393 25.5152 51.0393 24.0393C51.0393 22.7532 51.3872 21.5894 52.0829 20.5458C52.7787 19.5022 53.8265 18.6757 55.2286 18.0622C56.6306 17.4507 58.3447 17.145 60.3687 17.145C61.7813 17.145 63.1623 17.3137 64.5116 17.651C65.861 17.9884 67.0417 18.4733 68.0537 19.1058L66.4724 22.9957C64.4273 21.8361 62.3822 21.2563 60.3371 21.2563C58.9034 21.2563 57.8429 21.4882 57.1577 21.9521C56.4725 22.4159 56.1288 23.0273 56.1288 23.7863C56.1288 24.5453 56.5252 25.1104 57.3137 25.4793C58.1044 25.8483 59.3103 26.2109 60.9359 26.5693C62.6226 26.9699 64.0035 27.3705 65.0788 27.7711C66.154 28.1717 67.0754 28.8042 67.8449 29.6686C68.6145 30.533 69.0003 31.7032 69.0003 33.179C69.0003 34.444 68.6461 35.5994 67.9398 36.6409C67.2335 37.6846 66.173 38.5132 64.7604 39.1246C63.3478 39.736 61.6295 40.0417 59.6055 40.0417C57.8556 40.0417 56.1626 39.8056 54.5307 39.3291H54.537Z" fill="#4A1DCB"/>
<path d="M98.8587 22.6458L92.6918 39.6601H87.948L84.1213 29.0973L80.1681 39.6601H75.4244L69.2891 22.6458H73.938L77.9544 34.1573L82.1289 22.6458H86.3034L90.3515 34.1573L94.4944 22.6458H98.8587Z" fill="#4A1DCB"/>
<path d="M113.216 24.2754C114.629 25.5299 115.335 27.4232 115.335 29.9532V39.6622H110.718V37.5433C109.79 39.1245 108.061 39.9152 105.531 39.9152C104.224 39.9152 103.09 39.6938 102.133 39.251C101.173 38.8083 100.44 38.1969 99.9358 37.4168C99.4298 36.6367 99.1768 35.7512 99.1768 34.7603C99.1768 33.179 99.7713 31.9351 100.965 31.0285C102.156 30.1219 103.994 29.6686 106.482 29.6686H110.404C110.404 28.5933 110.077 27.7669 109.423 27.1849C108.77 26.6052 107.789 26.3163 106.482 26.3163C105.576 26.3163 104.684 26.4576 103.811 26.7443C102.936 27.0289 102.192 27.4148 101.58 27.8976L99.8093 24.4504C100.737 23.7968 101.848 23.2908 103.147 22.9324C104.443 22.574 105.776 22.3948 107.146 22.3948C109.782 22.3948 111.806 23.0231 113.218 24.2754H113.216ZM109.01 36.0084C109.664 35.6184 110.128 35.0449 110.402 34.2859V32.5465H107.018C104.994 32.5465 103.982 33.2106 103.982 34.5389C103.982 35.1714 104.228 35.6732 104.726 36.04C105.221 36.409 105.9 36.5924 106.765 36.5924C107.629 36.5924 108.357 36.3984 109.01 36.0063V36.0084Z" fill="#4A1DCB"/>
<path d="M132.414 24.2754C133.826 25.5299 134.532 27.4232 134.532 29.9532V39.6622H129.915V37.5433C128.987 39.1245 127.259 39.9152 124.729 39.9152C123.421 39.9152 122.287 39.6938 121.33 39.251C120.371 38.8083 119.637 38.1969 119.133 37.4168C118.627 36.6367 118.374 35.7512 118.374 34.7603C118.374 33.179 118.969 31.9351 120.162 31.0285C121.353 30.1219 123.192 29.6686 125.679 29.6686H129.601C129.601 28.5933 129.274 27.7669 128.621 27.1849C127.967 26.6052 126.987 26.3163 125.679 26.3163C124.773 26.3163 123.881 26.4576 123.008 26.7443C122.133 27.0289 121.389 27.4148 120.778 27.8976L119.007 24.4504C119.934 23.7968 121.045 23.2908 122.344 22.9324C123.641 22.574 124.973 22.3948 126.344 22.3948C128.979 22.3948 131.003 23.0231 132.416 24.2754H132.414ZM128.207 36.0084C128.861 35.6184 129.325 35.0449 129.599 34.2859V32.5465H126.215C124.191 32.5465 123.179 33.2106 123.179 34.5389C123.179 35.1714 123.426 35.6732 123.923 36.04C124.419 36.409 125.098 36.5924 125.962 36.5924C126.826 36.5924 127.554 36.3984 128.207 36.0063V36.0084Z" fill="#4A1DCB"/>
<path d="M153.047 23.4849C154.344 24.2123 155.36 25.2349 156.098 26.5526C156.836 27.8703 157.205 29.4052 157.205 31.153C157.205 32.9008 156.836 34.4378 156.098 35.7556C155.36 37.0733 154.344 38.0958 153.047 38.8232C151.751 39.5506 150.313 39.9153 148.732 39.9153C146.56 39.9153 144.852 39.2301 143.608 37.8597V45.7976H138.675V22.6458H143.387V24.6066C144.61 23.1307 146.391 22.3928 148.732 22.3928C150.313 22.3928 151.751 22.7555 153.047 23.4828V23.4849ZM150.992 34.5854C151.804 33.7315 152.21 32.5888 152.21 31.153C152.21 29.7172 151.804 28.5766 150.992 27.7227C150.18 26.8689 149.141 26.4409 147.876 26.4409C146.611 26.4409 145.571 26.8689 144.76 27.7227C143.948 28.5766 143.543 29.7214 143.543 31.153C143.543 32.5846 143.948 33.7315 144.76 34.5854C145.571 35.4393 146.611 35.8673 147.876 35.8673C149.141 35.8673 150.178 35.4414 150.992 34.5854Z" fill="#4A1DCB"/>
<path d="M10.6601 6.52115H10.658C8.96709 6.48952 7.36685 6.8627 5.94371 7.5458C2.46704 9.26833 0.0761719 12.8525 0.0761719 16.9954C0.0761719 16.9954 0.0761719 17.0102 0.0761719 17.0165H9.5743C10.1731 17.0165 10.6601 16.5295 10.6601 15.9307V6.52115Z" fill="#4A1DCB"/>
<path d="M17.1175 0.00206507C16.0675 -0.0169101 15.0745 0.2129 14.1911 0.636679C12.0321 1.70561 10.5479 3.92992 10.5479 6.50211C10.5479 6.50211 10.5479 6.51054 10.5479 6.51476H16.4428C16.816 6.51476 17.1175 6.21327 17.1175 5.84009V0.00206507Z" fill="#4A1DCB"/>
<path d="M17.179 14.8406C16.129 14.8596 15.136 14.6297 14.2526 14.206C12.0937 13.137 10.6094 10.9127 10.6094 8.34053C10.6094 8.34053 10.6094 8.3321 10.6094 8.32788H16.5043C16.8775 8.32788 17.179 8.62938 17.179 9.00255V14.8427V14.8406Z" fill="#4A1DCB"/>
<path d="M19.8927 45.9958H19.8906C18.6678 46.019 17.5103 45.7491 16.4814 45.2558C13.9662 44.0098 12.2373 41.4186 12.2373 38.4205C12.2373 38.4205 12.2373 38.41 12.2373 38.4058H19.1084C19.5427 38.4058 19.8948 38.7579 19.8948 39.1922V45.9979L19.8927 45.9958Z" fill="#4A1DCB"/>
<path d="M19.8923 40.025L19.886 40.0313C16.7087 40.084 13.7022 39.384 11.0267 38.1022C4.495 34.8637 0 28.1297 0 20.3435C0 20.3309 0 20.3161 0 20.3035H17.8514C18.9794 20.3035 19.8923 21.2164 19.8923 22.3444V40.0271V40.025Z" fill="#4A1DCB"/>
<path d="M43.6201 20.3035H25.2775C24.12 20.3035 23.1797 21.2417 23.1797 22.4013V40.571L23.186 40.5774C26.4497 40.6322 29.5406 39.9132 32.2899 38.5955C39.0029 35.2685 43.6223 28.3489 43.6223 20.3477C43.6223 20.333 43.6223 20.3203 43.6223 20.3077L43.6201 20.3035ZM35.4903 26.0972C34.6913 26.0972 34.0419 25.4478 34.0419 24.6488C34.0419 23.8497 34.6913 23.2003 35.4903 23.2003C36.2894 23.2003 36.9388 23.8497 36.9388 24.6488C36.9388 25.4478 36.2894 26.0972 35.4903 26.0972Z" fill="#4A1DCB"/>
<path d="M29.6768 12.863L32.445 15.684C32.445 15.684 33.71 16.9616 35.3967 16.9616C37.0834 16.9616 38.2725 15.7535 38.2725 15.7535L41.163 12.8524C41.163 12.8524 40.0351 11.6401 38.3484 11.6401C36.6617 11.6401 35.4262 12.8398 35.4262 12.8398C35.4262 12.8398 34.3425 11.676 32.445 11.676C30.5475 11.676 29.6768 12.8651 29.6768 12.8651V12.863Z" fill="#4A1DCB"/>
</g>
<defs>
<clipPath id="clip0_657_2896">
<rect width="157.207" height="46" fill="white"/>
</clipPath>
</defs>
</svg>
