<svg width="40" height="40" viewBox="0 0 40 40" fill="none" xmlns="http://www.w3.org/2000/svg">
<rect width="40" height="40" rx="12.9844" fill="#BEAFEF"/>
<rect x="11.9951" y="11.995" width="16.01" height="16.01" fill="black" fill-opacity="0.01"/>
<path d="M26.0036 16.515C25.5624 16.7159 25.0874 16.8518 24.5891 16.9125C25.098 16.6003 25.4884 16.1052 25.6723 15.5155C25.1959 15.8046 24.6694 16.0149 24.107 16.1276C23.6587 15.6369 23.0181 15.3304 22.3091 15.3304C20.9496 15.3304 19.8465 16.4615 19.8465 17.8564C19.8465 18.0544 19.8677 18.2467 19.91 18.4317C17.8626 18.3262 16.0477 17.3216 14.832 15.7915C14.6198 16.1659 14.4986 16.6003 14.4986 17.0628C14.4986 17.9388 14.9335 18.7121 15.5946 19.1652C15.1914 19.153 14.8108 19.0381 14.4782 18.8502V18.8813C14.4782 20.1056 15.3274 21.1268 16.4551 21.3581C16.2486 21.4173 16.0308 21.4469 15.806 21.4469C15.6474 21.4469 15.4924 21.4318 15.3422 21.4021C15.6559 22.4053 16.5651 23.136 17.6434 23.1555C16.8005 23.8334 15.7376 24.2374 14.5839 24.2374C14.3851 24.2374 14.1885 24.2259 13.9961 24.2027C15.0864 24.9182 16.3818 25.3367 17.7724 25.3367C22.3041 25.3367 24.7815 21.4882 24.7815 18.1498C24.7815 18.04 24.7794 17.9301 24.7752 17.8224C25.2565 17.4661 25.6745 17.0216 26.0036 16.515Z" fill="white"/>
</svg>
